<?xml version="1.0" encoding="utf-8"?>
<!-- Generator: Adobe Illustrator 23.0.2, SVG Export Plug-In . SVG Version: 6.00 Build 0)  -->
<svg version="1.1" xmlns="http://www.w3.org/2000/svg" xmlns:xlink="http://www.w3.org/1999/xlink" x="0px" y="0px"
	 viewBox="0 0 1250 750" style="enable-background:new 0 0 1250 750;" xml:space="preserve">
<style type="text/css">
	.st0{fill:#FFFFFF;}
	.st1{fill:#3E6786;}
	.st2{fill:#FAF139;}
</style>
<g id="Bg">
</g>
<g id="Object">
	<g>
		<g>
			<g>
				<g>
					<path class="st0" d="M389.55,249.64c0,0-0.01,0-0.01,0c0.01-0.32,0.01-0.63,0.01-0.95c0-21.56-17.48-39.03-39.03-39.03
						c-6.29,0-12.23,1.49-17.49,4.13c-7.46-19.27-26.17-32.93-48.08-32.93c-27.41,0-49.82,21.4-51.44,48.4
						c-2.11-0.43-4.3-0.65-6.54-0.65c-18.21,0-32.97,14.76-32.97,32.97c0,18.21,14.76,32.97,32.97,32.97h162.58v-0.19
						c12.35,0,22.36-10.01,22.36-22.36C411.91,259.65,401.9,249.64,389.55,249.64z"/>
				</g>
				<g>
					<path class="st1" d="M389.55,299.51H226.97c-20.91,0-37.93-17.02-37.93-37.93c0-20.91,17.02-37.93,37.93-37.93
						c0.72,0,1.43,0.02,2.15,0.06c4.2-27.2,27.78-47.81,55.83-47.81c11.62,0,22.79,3.5,32.29,10.13
						c7.86,5.49,14.13,12.77,18.34,21.27c4.76-1.73,9.77-2.6,14.93-2.6c23.05,0,42.02,17.82,43.85,40.41
						c12.78,2.28,22.5,13.47,22.5,26.89c0,14.56-11.45,26.5-25.82,27.28C390.58,299.43,390.07,299.51,389.55,299.51z M226.97,233.57
						c-15.45,0-28.01,12.57-28.01,28.01c0,15.45,12.57,28.01,28.01,28.01h161.22c0.43-0.12,0.89-0.19,1.36-0.19
						c9.59,0,17.4-7.81,17.4-17.4c0-9.59-7.79-17.39-17.38-17.4c-0.01,0-0.02,0-0.03,0c-1.34,0-2.62-0.54-3.55-1.49
						c-0.93-0.96-1.44-2.25-1.41-3.58c0.01-0.28,0.01-0.55,0.01-0.83c0-18.79-15.29-34.07-34.07-34.07c-5.37,0-10.5,1.21-15.26,3.6
						c-1.25,0.63-2.71,0.7-4.01,0.2c-1.3-0.5-2.34-1.53-2.84-2.84c-3.36-8.67-9.18-16.07-16.84-21.41
						c-7.83-5.46-17.03-8.35-26.61-8.35c-24.6,0-45.02,19.21-46.49,43.74c-0.09,1.43-0.79,2.76-1.93,3.63
						c-1.14,0.88-2.6,1.22-4,0.93C230.71,233.75,228.84,233.57,226.97,233.57z"/>
				</g>
			</g>
			<g>
				<g>
					
						<ellipse transform="matrix(0.7967 -0.6044 0.6044 0.7967 7.386 431.5033)" class="st2" cx="645.09" cy="204.77" rx="37.7" ry="37.7"/>
					<path class="st1" d="M645.05,247.44c-9.55,0-18.95-3.28-26.47-9.24c-7.63-6.05-13.01-14.62-15.13-24.15
						c-5.12-22.96,9.4-45.8,32.36-50.91c3.07-0.68,6.2-1.03,9.31-1.03c9.55,0,18.95,3.28,26.47,9.24
						c7.63,6.05,13.01,14.62,15.13,24.15c5.12,22.96-9.4,45.8-32.35,50.91C651.3,247.09,648.17,247.44,645.05,247.44z
						 M645.12,172.03c-2.39,0-4.8,0.27-7.16,0.79c-17.62,3.93-28.76,21.46-24.83,39.07c1.65,7.41,5.67,13.82,11.61,18.53
						c5.78,4.58,12.99,7.1,20.31,7.1c2.39,0,4.8-0.27,7.16-0.79c17.62-3.93,28.76-21.45,24.83-39.07
						c-1.65-7.42-5.67-13.82-11.61-18.53C659.65,174.55,652.44,172.03,645.12,172.03z"/>
				</g>
				<g>
					<path class="st1" d="M630.62,144.86c-2.27,0-4.32-1.57-4.84-3.88l-6.69-30.02c-0.6-2.67,1.09-5.32,3.76-5.92
						c2.67-0.6,5.32,1.09,5.92,3.76l6.69,30.02c0.6,2.67-1.09,5.32-3.76,5.92C631.34,144.82,630.98,144.86,630.62,144.86z"/>
				</g>
				<g>
					<path class="st1" d="M600.13,160.78c-1.34,0-2.68-0.54-3.65-1.6l-20.8-22.65c-1.85-2.02-1.72-5.16,0.3-7.01
						c2.02-1.85,5.16-1.72,7.01,0.3l20.8,22.65c1.85,2.02,1.72,5.16-0.3,7.01C602.53,160.35,601.33,160.78,600.13,160.78z"/>
				</g>
				<g>
					<path class="st1" d="M549.31,239.99c-2.27,0-4.32-1.57-4.84-3.88c-0.6-2.67,1.09-5.32,3.76-5.92l30.02-6.69
						c2.67-0.6,5.32,1.09,5.92,3.76c0.6,2.67-1.09,5.32-3.76,5.92l-30.02,6.69C550.03,239.96,549.66,239.99,549.31,239.99z"/>
				</g>
				<g>
					<path class="st1" d="M572.6,284.6c-1.34,0-2.68-0.54-3.65-1.6c-1.85-2.02-1.72-5.16,0.3-7.01l22.65-20.8
						c2.02-1.85,5.16-1.72,7.01,0.3c1.85,2.02,1.72,5.16-0.3,7.01l-22.65,20.8C575,284.17,573.8,284.6,572.6,284.6z"/>
				</g>
				<g>
					<path class="st1" d="M737.84,238.86c-0.49,0-0.99-0.07-1.49-0.23l-29.34-9.21c-2.61-0.82-4.07-3.6-3.25-6.22
						c0.82-2.61,3.6-4.07,6.22-3.25l29.34,9.21c2.61,0.82,4.07,3.6,3.25,6.22C741.9,237.51,739.95,238.86,737.84,238.86z"/>
				</g>
				<g>
					<path class="st1" d="M709.95,195.28c-2.27,0-4.32-1.57-4.84-3.88c-0.6-2.67,1.09-5.32,3.76-5.92l30.02-6.69
						c2.67-0.6,5.32,1.09,5.92,3.76c0.6,2.67-1.09,5.32-3.76,5.92l-30.02,6.69C710.67,195.24,710.31,195.28,709.95,195.28z"/>
				</g>
				<g>
					<path class="st1" d="M694.04,164.78c-1.34,0-2.68-0.54-3.65-1.6c-1.85-2.02-1.72-5.16,0.3-7.01l22.65-20.8
						c2.02-1.85,5.16-1.72,7.01,0.3c1.85,2.02,1.72,5.16-0.3,7.01l-22.65,20.8C696.44,164.34,695.24,164.78,694.04,164.78z"/>
				</g>
				<g>
					<path class="st1" d="M665,146.32c-0.49,0-0.99-0.07-1.49-0.23c-2.61-0.82-4.07-3.6-3.25-6.22l9.21-29.34
						c0.82-2.61,3.6-4.07,6.22-3.25c2.61,0.82,4.07,3.6,3.25,6.22l-9.21,29.34C669.07,144.97,667.11,146.32,665,146.32z"/>
				</g>
				<g>
					<g>
						<path class="st0" d="M684.31,249.64c0,0-0.01,0-0.01,0c0.01-0.32,0.01-0.63,0.01-0.95c0-21.56-17.48-39.03-39.03-39.03
							c-6.29,0-12.23,1.49-17.49,4.13c-7.46-19.27-26.17-32.93-48.08-32.93c-27.41,0-49.82,21.4-51.44,48.4
							c-2.11-0.43-4.3-0.65-6.54-0.65c-18.21,0-32.97,14.76-32.97,32.97c0,18.21,14.76,32.97,32.97,32.97h162.58v-0.19
							c12.35,0,22.36-10.01,22.36-22.36C706.67,259.65,696.66,249.64,684.31,249.64z"/>
					</g>
					<g>
						<path class="st1" d="M684.31,299.51H521.73c-20.92,0-37.93-17.02-37.93-37.93c0-20.91,17.02-37.93,37.93-37.93
							c0.72,0,1.43,0.02,2.15,0.06c4.2-27.2,27.78-47.81,55.83-47.81c11.62,0,22.79,3.5,32.29,10.13
							c7.86,5.49,14.13,12.77,18.34,21.27c4.76-1.73,9.77-2.6,14.93-2.6c23.05,0,42.02,17.82,43.85,40.41
							c12.78,2.28,22.5,13.47,22.5,26.89c0,14.56-11.45,26.5-25.82,27.28C685.33,299.43,684.83,299.51,684.31,299.51z
							 M521.73,233.57c-15.45,0-28.01,12.57-28.01,28.01c0,15.45,12.57,28.01,28.01,28.01h161.22c0.43-0.12,0.89-0.19,1.36-0.19
							c9.59,0,17.4-7.81,17.4-17.4c0-9.59-7.79-17.39-17.38-17.4c-0.01,0-0.02,0-0.03,0c-1.34,0-2.62-0.54-3.55-1.5
							c-0.93-0.96-1.44-2.25-1.41-3.59c0.01-0.27,0.01-0.55,0.01-0.83c0-18.79-15.29-34.07-34.07-34.07c-5.36,0-10.5,1.21-15.26,3.6
							c-1.25,0.63-2.71,0.7-4.01,0.2c-1.3-0.5-2.34-1.53-2.84-2.84c-3.36-8.67-9.18-16.07-16.84-21.41
							c-7.83-5.46-17.03-8.35-26.61-8.35c-24.6,0-45.02,19.21-46.49,43.74c-0.09,1.43-0.79,2.76-1.93,3.63
							c-1.14,0.88-2.6,1.22-4,0.93C525.47,233.75,523.6,233.57,521.73,233.57z"/>
					</g>
				</g>
			</g>
			<g>
				<g>
					<g>
						<path class="st0" d="M1022.53,249.64c0,0-0.01,0-0.01,0c0.01-0.32,0.01-0.63,0.01-0.95c0-21.56-17.48-39.03-39.03-39.03
							c-6.29,0-12.23,1.49-17.49,4.13c-7.46-19.27-26.17-32.93-48.08-32.93c-27.41,0-49.82,21.4-51.44,48.4
							c-2.11-0.43-4.3-0.65-6.54-0.65c-18.21,0-32.97,14.76-32.97,32.97c0,18.21,14.76,32.97,32.97,32.97h162.58v-0.19
							c12.35,0,22.36-10.01,22.36-22.36C1044.89,259.65,1034.88,249.64,1022.53,249.64z"/>
					</g>
					<g>
						<path class="st1" d="M1022.53,299.51H859.95c-20.91,0-37.93-17.02-37.93-37.93c0-20.91,17.02-37.93,37.93-37.93
							c0.72,0,1.43,0.02,2.15,0.06c4.2-27.2,27.78-47.81,55.83-47.81c11.62,0,22.79,3.5,32.29,10.13
							c7.86,5.49,14.13,12.77,18.34,21.27c4.76-1.73,9.77-2.6,14.93-2.6c23.05,0,42.02,17.82,43.85,40.41
							c12.78,2.28,22.5,13.47,22.5,26.89c0,14.56-11.45,26.5-25.82,27.28C1023.56,299.43,1023.05,299.51,1022.53,299.51z
							 M859.95,233.57c-15.45,0-28.01,12.57-28.01,28.01c0,15.45,12.57,28.01,28.01,28.01h161.22c0.43-0.12,0.89-0.19,1.36-0.19
							c9.59,0,17.4-7.81,17.4-17.4c0-9.59-7.79-17.39-17.38-17.4c-0.01,0-0.02,0-0.03,0c-1.34,0-2.62-0.54-3.55-1.5
							c-0.93-0.96-1.44-2.25-1.41-3.59c0.01-0.27,0.01-0.55,0.01-0.83c0-18.79-15.29-34.07-34.07-34.07c-5.37,0-10.5,1.21-15.26,3.6
							c-1.25,0.63-2.71,0.7-4.01,0.2c-1.3-0.5-2.34-1.53-2.84-2.84c-3.36-8.67-9.18-16.07-16.84-21.41
							c-7.83-5.46-17.03-8.35-26.61-8.35c-24.6,0-45.02,19.21-46.49,43.74c-0.09,1.43-0.79,2.76-1.93,3.63
							c-1.14,0.88-2.6,1.22-4,0.93C863.69,233.75,861.82,233.57,859.95,233.57z"/>
					</g>
				</g>
				<g>
					<polygon class="st2" points="911.42,280.61 945.98,280.61 911.42,367.27 911.42,308.48 876.86,308.48 911.42,221.82 					"/>
					<path class="st1" d="M911.42,372.23c-0.31,0-0.62-0.03-0.94-0.09c-2.34-0.45-4.02-2.49-4.02-4.87v-53.83h-29.6
						c-1.64,0-3.18-0.82-4.11-2.18c-0.92-1.36-1.11-3.09-0.5-4.62l34.56-86.66c0.88-2.21,3.21-3.48,5.54-3.03
						c2.34,0.45,4.02,2.49,4.02,4.87v53.83h29.6c1.64,0,3.18,0.82,4.11,2.18c0.92,1.36,1.11,3.09,0.5,4.62l-34.56,86.66
						C915.26,371.02,913.42,372.23,911.42,372.23z M884.17,303.52h27.24c2.74,0,4.96,2.22,4.96,4.96v32.97l22.28-55.87h-27.24
						c-2.74,0-4.96-2.22-4.96-4.96v-32.97L884.17,303.52z"/>
				</g>
				<g>
					<polygon class="st2" points="976.43,205.53 1000.06,205.53 976.43,264.78 976.43,224.59 952.8,224.59 976.43,165.33 					"/>
					<path class="st1" d="M976.44,269.74c-0.31,0-0.62-0.03-0.94-0.09c-2.34-0.45-4.02-2.49-4.02-4.87v-35.24H952.8
						c-1.65,0-3.18-0.82-4.11-2.18c-0.92-1.36-1.11-3.09-0.5-4.62l23.63-59.25c0.88-2.21,3.21-3.48,5.54-3.03
						c2.34,0.45,4.02,2.49,4.02,4.87v35.24h18.67c1.64,0,3.18,0.82,4.11,2.18c0.92,1.36,1.11,3.09,0.5,4.62l-23.63,59.25
						C980.28,268.53,978.43,269.74,976.44,269.74z M960.12,219.63h16.31c2.74,0,4.96,2.22,4.96,4.96v14.37l11.35-28.47h-16.31
						c-2.74,0-4.96-2.22-4.96-4.96v-14.37L960.12,219.63z"/>
				</g>
			</g>
			<g>
				<g>
					<path class="st1" d="M449.69,134.32c-1.1,0-1.98-0.89-1.98-1.98v-7.44c0-1.1,0.89-1.98,1.98-1.98c1.1,0,1.98,0.89,1.98,1.98
						v7.44C451.68,133.43,450.79,134.32,449.69,134.32z"/>
				</g>
				<g>
					<path class="st1" d="M449.69,186.35c-1.1,0-1.98-0.89-1.98-1.98v-13.01c0-1.1,0.89-1.98,1.98-1.98c1.1,0,1.98,0.89,1.98,1.98
						v13.01C451.68,185.46,450.79,186.35,449.69,186.35z M449.69,160.33c-1.1,0-1.98-0.89-1.98-1.98v-13.01
						c0-1.1,0.89-1.98,1.98-1.98c1.1,0,1.98,0.89,1.98,1.98v13.01C451.68,159.44,450.79,160.33,449.69,160.33z"/>
				</g>
				<g>
					<path class="st1" d="M449.69,342.44c-1.1,0-1.98-0.89-1.98-1.98v-13.01c0-1.1,0.89-1.98,1.98-1.98c1.1,0,1.98,0.89,1.98,1.98
						v13.01C451.68,341.55,450.79,342.44,449.69,342.44z M449.69,316.43c-1.1,0-1.98-0.89-1.98-1.98v-13.01
						c0-1.1,0.89-1.98,1.98-1.98c1.1,0,1.98,0.89,1.98,1.98v13.01C451.68,315.54,450.79,316.43,449.69,316.43z M449.69,290.41
						c-1.1,0-1.98-0.89-1.98-1.98v-13.01c0-1.1,0.89-1.98,1.98-1.98c1.1,0,1.98,0.89,1.98,1.98v13.01
						C451.68,289.52,450.79,290.41,449.69,290.41z M449.69,264.39c-1.1,0-1.98-0.89-1.98-1.98V249.4c0-1.1,0.89-1.98,1.98-1.98
						c1.1,0,1.98,0.89,1.98,1.98v13.01C451.68,263.51,450.79,264.39,449.69,264.39z M449.69,238.38c-1.1,0-1.98-0.89-1.98-1.98
						v-13.01c0-1.1,0.89-1.98,1.98-1.98c1.1,0,1.98,0.89,1.98,1.98v13.01C451.68,237.49,450.79,238.38,449.69,238.38z
						 M449.69,212.36c-1.1,0-1.98-0.89-1.98-1.98v-13.01c0-1.1,0.89-1.98,1.98-1.98c1.1,0,1.98,0.89,1.98,1.98v13.01
						C451.68,211.48,450.79,212.36,449.69,212.36z"/>
				</g>
				<g>
					<path class="st1" d="M449.69,362.89c-1.1,0-1.98-0.89-1.98-1.98v-7.44c0-1.1,0.89-1.98,1.98-1.98c1.1,0,1.98,0.89,1.98,1.98
						v7.44C451.68,362,450.79,362.89,449.69,362.89z"/>
				</g>
			</g>
			<g>
				<g>
					<path class="st1" d="M779.87,134.32c-1.1,0-1.98-0.89-1.98-1.98v-7.44c0-1.1,0.89-1.98,1.98-1.98c1.1,0,1.98,0.89,1.98,1.98
						v7.44C781.85,133.43,780.96,134.32,779.87,134.32z"/>
				</g>
				<g>
					<path class="st1" d="M779.87,186.35c-1.1,0-1.98-0.89-1.98-1.98v-13.01c0-1.1,0.89-1.98,1.98-1.98c1.1,0,1.98,0.89,1.98,1.98
						v13.01C781.85,185.46,780.96,186.35,779.87,186.35z M779.87,160.33c-1.1,0-1.98-0.89-1.98-1.98v-13.01
						c0-1.1,0.89-1.98,1.98-1.98c1.1,0,1.98,0.89,1.98,1.98v13.01C781.85,159.44,780.96,160.33,779.87,160.33z"/>
				</g>
				<g>
					<path class="st1" d="M779.87,342.44c-1.1,0-1.98-0.89-1.98-1.98v-13.01c0-1.1,0.89-1.98,1.98-1.98c1.1,0,1.98,0.89,1.98,1.98
						v13.01C781.85,341.55,780.96,342.44,779.87,342.44z M779.87,316.43c-1.1,0-1.98-0.89-1.98-1.98v-13.01
						c0-1.1,0.89-1.98,1.98-1.98c1.1,0,1.98,0.89,1.98,1.98v13.01C781.85,315.54,780.96,316.43,779.87,316.43z M779.87,290.41
						c-1.1,0-1.98-0.89-1.98-1.98v-13.01c0-1.1,0.89-1.98,1.98-1.98c1.1,0,1.98,0.89,1.98,1.98v13.01
						C781.85,289.52,780.96,290.41,779.87,290.41z M779.87,264.39c-1.1,0-1.98-0.89-1.98-1.98V249.4c0-1.1,0.89-1.98,1.98-1.98
						c1.1,0,1.98,0.89,1.98,1.98v13.01C781.85,263.51,780.96,264.39,779.87,264.39z M779.87,238.38c-1.1,0-1.98-0.89-1.98-1.98
						v-13.01c0-1.1,0.89-1.98,1.98-1.98c1.1,0,1.98,0.89,1.98,1.98v13.01C781.85,237.49,780.96,238.38,779.87,238.38z
						 M779.87,212.36c-1.1,0-1.98-0.89-1.98-1.98v-13.01c0-1.1,0.89-1.98,1.98-1.98c1.1,0,1.98,0.89,1.98,1.98v13.01
						C781.85,211.48,780.96,212.36,779.87,212.36z"/>
				</g>
				<g>
					<path class="st1" d="M779.87,362.89c-1.1,0-1.98-0.89-1.98-1.98v-7.44c0-1.1,0.89-1.98,1.98-1.98c1.1,0,1.98,0.89,1.98,1.98
						v7.44C781.85,362,780.96,362.89,779.87,362.89z"/>
				</g>
			</g>
		</g>
	</g>
</g>
</svg>
